<mxfile host="app.diagrams.net" modified="2024-03-07T19:53:34.572Z" agent="Mozilla/5.0 (Windows NT 10.0; Win64; x64; rv:123.0) Gecko/20100101 Firefox/123.0" etag="90Kiw_OdSmeOmDZbT1Da" version="24.0.2" type="github">
  <diagram name="Page-1" id="099fd60b-425b-db50-ffb0-6b813814b670">
    <mxGraphModel dx="940" dy="514" grid="1" gridSize="10" guides="1" tooltips="1" connect="1" arrows="1" fold="1" page="1" pageScale="1" pageWidth="850" pageHeight="1100" background="none" math="0" shadow="0">
      <root>
        <mxCell id="0" />
        <mxCell id="1" parent="0" />
        <mxCell id="knLnSjx3b7bCp9ftx-Hr-1" value="" style="strokeColor=#666666;html=1;verticalLabelPosition=bottom;labelBackgroundColor=#ffffff;verticalAlign=top;outlineConnect=0;shadow=0;dashed=0;shape=mxgraph.rackGeneral.rackCabinet3;fillColor2=#f4f4f4;container=1;collapsible=0;childLayout=rack;allowGaps=1;marginLeft=33;marginRight=9;marginTop=21;marginBottom=22;textColor=#666666;numDisp=ascend;" vertex="1" parent="1">
          <mxGeometry x="320" y="460" width="204" height="300" as="geometry" />
        </mxCell>
        <mxCell id="knLnSjx3b7bCp9ftx-Hr-3" value="" style="strokeColor=#666666;html=1;labelPosition=right;align=left;spacingLeft=15;shadow=0;dashed=0;outlineConnect=0;shape=mxgraph.rackGeneral.horCableDuct;" vertex="1" parent="knLnSjx3b7bCp9ftx-Hr-1">
          <mxGeometry x="33" y="21" width="162" height="15" as="geometry" />
        </mxCell>
        <mxCell id="knLnSjx3b7bCp9ftx-Hr-2" value="" style="strokeColor=#666666;html=1;labelPosition=right;align=left;spacingLeft=15;shadow=0;dashed=0;outlineConnect=0;shape=mxgraph.rack.general.cat5e_rack_mount_patch_panel_24_ports;" vertex="1" parent="knLnSjx3b7bCp9ftx-Hr-1">
          <mxGeometry x="33" y="36" width="162" height="15" as="geometry" />
        </mxCell>
        <mxCell id="knLnSjx3b7bCp9ftx-Hr-4" value="" style="strokeColor=#666666;html=1;labelPosition=right;align=left;spacingLeft=15;shadow=0;dashed=0;outlineConnect=0;shape=mxgraph.rackGeneral.shelf;container=1;collapsible=0" vertex="1" parent="knLnSjx3b7bCp9ftx-Hr-1">
          <mxGeometry x="33" y="51" width="162" height="30" as="geometry" />
        </mxCell>
        <mxCell id="knLnSjx3b7bCp9ftx-Hr-6" value="" style="strokeColor=#666666;html=1;labelPosition=right;align=left;spacingLeft=15;shadow=0;dashed=0;outlineConnect=0;shape=mxgraph.rack.dell.poweredge_r740;" vertex="1" parent="knLnSjx3b7bCp9ftx-Hr-1">
          <mxGeometry x="33" y="126" width="162" height="30" as="geometry" />
        </mxCell>
        <mxCell id="knLnSjx3b7bCp9ftx-Hr-7" value="" style="strokeColor=#666666;html=1;labelPosition=right;align=left;spacingLeft=15;shadow=0;dashed=0;outlineConnect=0;shape=mxgraph.rack.dell.poweredge_r740;" vertex="1" parent="knLnSjx3b7bCp9ftx-Hr-1">
          <mxGeometry x="33" y="156" width="162" height="30" as="geometry" />
        </mxCell>
        <mxCell id="knLnSjx3b7bCp9ftx-Hr-9" value="" style="strokeColor=#666666;html=1;labelPosition=right;align=left;spacingLeft=15;shadow=0;dashed=0;outlineConnect=0;shape=mxgraph.rack.dell.poweredge_r640;" vertex="1" parent="knLnSjx3b7bCp9ftx-Hr-1">
          <mxGeometry x="33" y="111" width="162" height="15" as="geometry" />
        </mxCell>
        <mxCell id="knLnSjx3b7bCp9ftx-Hr-5" value="" style="strokeColor=#666666;html=1;labelPosition=right;align=left;spacingLeft=15;shadow=0;dashed=0;outlineConnect=0;shape=mxgraph.rack.dell.poweredge_r640;" vertex="1" parent="knLnSjx3b7bCp9ftx-Hr-1">
          <mxGeometry x="33" y="81" width="162" height="15" as="geometry" />
        </mxCell>
        <mxCell id="knLnSjx3b7bCp9ftx-Hr-8" value="" style="strokeColor=#666666;html=1;labelPosition=right;align=left;spacingLeft=15;shadow=0;dashed=0;outlineConnect=0;shape=mxgraph.rack.dell.poweredge_r640;" vertex="1" parent="knLnSjx3b7bCp9ftx-Hr-1">
          <mxGeometry x="33" y="96" width="162" height="15" as="geometry" />
        </mxCell>
      </root>
    </mxGraphModel>
  </diagram>
</mxfile>
